<svg width="184" height="48" viewBox="0 0 184 48" fill="none" xmlns="http://www.w3.org/2000/svg">
<rect x="0.5" y="0.5" width="183" height="47" rx="4.3" fill="#122454"/>
<g clip-path="url(#clip0_13_8977)">
<rect width="150" height="30" transform="translate(17 9)" fill="white" fill-opacity="0.01"/>
<path d="M19.62 31.14C19.3267 31.14 19.1 31.06 18.94 30.9C18.78 30.7267 18.7 30.4867 18.7 30.18V17.72C18.7 17.4 18.78 17.16 18.94 17C19.1 16.84 19.3267 16.76 19.62 16.76C19.9267 16.76 20.16 16.84 20.32 17C20.48 17.16 20.56 17.4 20.56 17.72V30.18C20.56 30.4867 20.48 30.7267 20.32 30.9C20.1733 31.06 19.94 31.14 19.62 31.14ZM24.5944 31.14C24.3144 31.14 24.0944 31.06 23.9344 30.9C23.7744 30.74 23.6944 30.5067 23.6944 30.2V22.04C23.6944 21.7333 23.7744 21.5067 23.9344 21.36C24.0944 21.2 24.3144 21.12 24.5944 21.12C24.8744 21.12 25.0877 21.2 25.2344 21.36C25.3944 21.5067 25.4744 21.7333 25.4744 22.04V23.68L25.2544 23.38C25.5344 22.62 25.9877 22.0467 26.6144 21.66C27.2544 21.2733 27.981 21.08 28.7944 21.08C29.581 21.08 30.2277 21.22 30.7344 21.5C31.241 21.78 31.621 22.2067 31.8744 22.78C32.1277 23.3533 32.2544 24.08 32.2544 24.96V30.2C32.2544 30.5067 32.1744 30.74 32.0144 30.9C31.8677 31.06 31.6477 31.14 31.3544 31.14C31.061 31.14 30.8344 31.06 30.6744 30.9C30.5144 30.74 30.4344 30.5067 30.4344 30.2V25.06C30.4344 24.1933 30.2677 23.56 29.9344 23.16C29.601 22.76 29.0677 22.56 28.3344 22.56C27.481 22.56 26.7944 22.8267 26.2744 23.36C25.7677 23.88 25.5144 24.5867 25.5144 25.48V30.2C25.5144 30.8267 25.2077 31.14 24.5944 31.14ZM36.0397 31.1C35.7597 31.1 35.5397 31.0133 35.3797 30.84C35.2197 30.6667 35.1397 30.4267 35.1397 30.12V22.14C35.1397 21.82 35.2197 21.58 35.3797 21.42C35.5397 21.2467 35.7597 21.16 36.0397 21.16C36.333 21.16 36.5597 21.2467 36.7197 21.42C36.8797 21.58 36.9597 21.82 36.9597 22.14V30.12C36.9597 30.4267 36.8797 30.6667 36.7197 30.84C36.573 31.0133 36.3464 31.1 36.0397 31.1ZM36.0397 19C35.6797 19 35.393 18.9067 35.1797 18.72C34.9797 18.52 34.8797 18.26 34.8797 17.94C34.8797 17.5933 34.9797 17.3333 35.1797 17.16C35.393 16.9733 35.6797 16.88 36.0397 16.88C36.4264 16.88 36.713 16.9733 36.8997 17.16C37.0997 17.3333 37.1997 17.5933 37.1997 17.94C37.1997 18.26 37.0997 18.52 36.8997 18.72C36.713 18.9067 36.4264 19 36.0397 19ZM44.1058 31.18C43.1191 31.18 42.2658 30.9733 41.5458 30.56C40.8258 30.1333 40.2724 29.54 39.8858 28.78C39.4991 28.0067 39.3058 27.1 39.3058 26.06C39.3058 25.2867 39.4124 24.5933 39.6258 23.98C39.8524 23.3667 40.1724 22.8467 40.5858 22.42C40.9991 21.98 41.4991 21.6467 42.0858 21.42C42.6858 21.1933 43.3591 21.08 44.1058 21.08C44.5724 21.08 45.0658 21.1533 45.5858 21.3C46.1058 21.4467 46.5858 21.6867 47.0258 22.02C47.1724 22.1267 47.2658 22.2533 47.3058 22.4C47.3458 22.5333 47.3458 22.6733 47.3058 22.82C47.2791 22.9667 47.2124 23.0933 47.1058 23.2C47.0124 23.2933 46.8858 23.3467 46.7258 23.36C46.5791 23.3733 46.4191 23.3267 46.2458 23.22C45.9258 22.98 45.5858 22.8067 45.2258 22.7C44.8791 22.5933 44.5458 22.54 44.2258 22.54C43.7324 22.54 43.2924 22.62 42.9058 22.78C42.5324 22.94 42.2124 23.1733 41.9458 23.48C41.6924 23.7733 41.4991 24.14 41.3658 24.58C41.2324 25.0067 41.1658 25.5067 41.1658 26.08C41.1658 27.2133 41.4324 28.1067 41.9658 28.76C42.4991 29.4 43.2524 29.72 44.2258 29.72C44.5458 29.72 44.8791 29.6733 45.2258 29.58C45.5724 29.4733 45.9124 29.3 46.2458 29.06C46.4191 28.9533 46.5791 28.9133 46.7258 28.94C46.8724 28.9533 46.9924 29.0133 47.0858 29.12C47.1924 29.2133 47.2591 29.3333 47.2858 29.48C47.3124 29.6133 47.2991 29.7533 47.2458 29.9C47.2058 30.0467 47.1124 30.1667 46.9658 30.26C46.5391 30.58 46.0724 30.8133 45.5658 30.96C45.0591 31.1067 44.5724 31.18 44.1058 31.18ZM50.0827 31.1C49.8027 31.1 49.5827 31.0133 49.4227 30.84C49.2627 30.6667 49.1827 30.4267 49.1827 30.12V22.14C49.1827 21.82 49.2627 21.58 49.4227 21.42C49.5827 21.2467 49.8027 21.16 50.0827 21.16C50.376 21.16 50.6027 21.2467 50.7627 21.42C50.9227 21.58 51.0027 21.82 51.0027 22.14V30.12C51.0027 30.4267 50.9227 30.6667 50.7627 30.84C50.616 31.0133 50.3893 31.1 50.0827 31.1ZM50.0827 19C49.7227 19 49.436 18.9067 49.2227 18.72C49.0227 18.52 48.9227 18.26 48.9227 17.94C48.9227 17.5933 49.0227 17.3333 49.2227 17.16C49.436 16.9733 49.7227 16.88 50.0827 16.88C50.4693 16.88 50.756 16.9733 50.9427 17.16C51.1427 17.3333 51.2427 17.5933 51.2427 17.94C51.2427 18.26 51.1427 18.52 50.9427 18.72C50.756 18.9067 50.4693 19 50.0827 19ZM57.0288 31.18C56.3621 31.18 55.7554 31.0467 55.2088 30.78C54.6754 30.5133 54.2554 30.1533 53.9488 29.7C53.6554 29.2467 53.5088 28.74 53.5088 28.18C53.5088 27.46 53.6888 26.8933 54.0488 26.48C54.4088 26.0667 55.0154 25.7733 55.8688 25.6C56.7221 25.4133 57.8688 25.32 59.3088 25.32H60.2488V26.48H59.3488C58.3221 26.48 57.5088 26.5267 56.9088 26.62C56.3221 26.7133 55.9088 26.88 55.6688 27.12C55.4288 27.3467 55.3088 27.6667 55.3088 28.08C55.3088 28.6 55.4888 29.0267 55.8488 29.36C56.2221 29.6933 56.7288 29.86 57.3688 29.86C57.8754 29.86 58.3221 29.74 58.7088 29.5C59.0954 29.2467 59.4021 28.9133 59.6288 28.5C59.8554 28.0733 59.9688 27.5867 59.9688 27.04V24.74C59.9688 23.9533 59.8088 23.3867 59.4888 23.04C59.1688 22.68 58.6288 22.5 57.8688 22.5C57.4288 22.5 56.9754 22.56 56.5088 22.68C56.0421 22.8 55.5554 22.9867 55.0488 23.24C54.8488 23.3333 54.6754 23.3667 54.5288 23.34C54.3821 23.3 54.2621 23.22 54.1688 23.1C54.0888 22.9667 54.0421 22.8267 54.0288 22.68C54.0288 22.52 54.0621 22.3667 54.1288 22.22C54.2088 22.0733 54.3421 21.9667 54.5288 21.9C55.1154 21.6067 55.6954 21.4 56.2688 21.28C56.8554 21.1467 57.4021 21.08 57.9088 21.08C58.7754 21.08 59.4888 21.22 60.0488 21.5C60.6088 21.7667 61.0288 22.1867 61.3088 22.76C61.5888 23.32 61.7288 24.04 61.7288 24.92V30.2C61.7288 30.5067 61.6554 30.74 61.5088 30.9C61.3621 31.06 61.1488 31.14 60.8688 31.14C60.6021 31.14 60.3888 31.06 60.2288 30.9C60.0821 30.74 60.0088 30.5067 60.0088 30.2V28.78H60.1888C60.0821 29.2733 59.8821 29.7 59.5888 30.06C59.2954 30.42 58.9288 30.7 58.4888 30.9C58.0621 31.0867 57.5754 31.18 57.0288 31.18ZM65.5328 31.14C65.2261 31.14 64.9928 31.06 64.8328 30.9C64.6728 30.74 64.5928 30.5067 64.5928 30.2V22.04C64.5928 21.7333 64.6728 21.5067 64.8328 21.36C64.9928 21.2 65.2128 21.12 65.4928 21.12C65.7728 21.12 65.9861 21.2 66.1328 21.36C66.2928 21.5067 66.3728 21.7333 66.3728 22.04V23.58H66.1728C66.3861 22.78 66.7861 22.1733 67.3728 21.76C67.9595 21.3467 68.6995 21.1133 69.5928 21.06C69.8061 21.0467 69.9795 21.1 70.1128 21.22C70.2461 21.3267 70.3195 21.5133 70.3328 21.78C70.3461 22.0333 70.2861 22.24 70.1528 22.4C70.0195 22.5467 69.8128 22.6333 69.5328 22.66L69.1728 22.68C68.2928 22.7733 67.6128 23.06 67.1328 23.54C66.6661 24.02 66.4328 24.68 66.4328 25.52V30.2C66.4328 30.5067 66.3528 30.74 66.1928 30.9C66.0461 31.06 65.8261 31.14 65.5328 31.14ZM78.3523 31C78.0323 31 77.7857 30.9133 77.6123 30.74C77.439 30.5667 77.3523 30.32 77.3523 30V17.9C77.3523 17.58 77.439 17.3333 77.6123 17.16C77.7857 16.9867 78.0323 16.9 78.3523 16.9H85.7123C85.9657 16.9 86.159 16.9667 86.2923 17.1C86.439 17.22 86.5123 17.4 86.5123 17.64C86.5123 17.8933 86.439 18.0867 86.2923 18.22C86.159 18.3533 85.9657 18.42 85.7123 18.42H79.1523V23.08H85.2923C85.5457 23.08 85.739 23.1467 85.8723 23.28C86.0057 23.4133 86.0723 23.6 86.0723 23.84C86.0723 24.0933 86.0057 24.2867 85.8723 24.42C85.739 24.54 85.5457 24.6 85.2923 24.6H79.1523V29.48H85.7123C85.9657 29.48 86.159 29.5467 86.2923 29.68C86.439 29.8 86.5123 29.9867 86.5123 30.24C86.5123 30.4933 86.439 30.6867 86.2923 30.82C86.159 30.94 85.9657 31 85.7123 31H78.3523ZM89.7311 31.14C89.4511 31.14 89.2311 31.06 89.0711 30.9C88.9111 30.74 88.8311 30.5067 88.8311 30.2V22.04C88.8311 21.7333 88.9111 21.5067 89.0711 21.36C89.2311 21.2 89.4511 21.12 89.7311 21.12C90.0111 21.12 90.2244 21.2 90.3711 21.36C90.5311 21.5067 90.6111 21.7333 90.6111 22.04V23.68L90.3911 23.38C90.6711 22.62 91.1244 22.0467 91.7511 21.66C92.3911 21.2733 93.1178 21.08 93.9311 21.08C94.7178 21.08 95.3644 21.22 95.8711 21.5C96.3778 21.78 96.7578 22.2067 97.0111 22.78C97.2644 23.3533 97.3911 24.08 97.3911 24.96V30.2C97.3911 30.5067 97.3111 30.74 97.1511 30.9C97.0044 31.06 96.7844 31.14 96.4911 31.14C96.1978 31.14 95.9711 31.06 95.8111 30.9C95.6511 30.74 95.5711 30.5067 95.5711 30.2V25.06C95.5711 24.1933 95.4044 23.56 95.0711 23.16C94.7378 22.76 94.2044 22.56 93.4711 22.56C92.6178 22.56 91.9311 22.8267 91.4111 23.36C90.9044 23.88 90.6511 24.5867 90.6511 25.48V30.2C90.6511 30.8267 90.3444 31.14 89.7311 31.14ZM104.316 31.18C103.53 31.18 102.87 31.04 102.336 30.76C101.816 30.48 101.423 30.0733 101.156 29.54C100.903 29.0067 100.776 28.3533 100.776 27.58V22.66H99.4964C99.2564 22.66 99.0697 22.6 98.9364 22.48C98.8031 22.3467 98.7364 22.1733 98.7364 21.96C98.7364 21.7333 98.8031 21.56 98.9364 21.44C99.0697 21.32 99.2564 21.26 99.4964 21.26H100.776V19.08C100.776 18.7733 100.856 18.5467 101.016 18.4C101.176 18.24 101.403 18.16 101.696 18.16C101.99 18.16 102.21 18.24 102.356 18.4C102.516 18.5467 102.596 18.7733 102.596 19.08V21.26H105.016C105.27 21.26 105.463 21.32 105.596 21.44C105.73 21.56 105.796 21.7333 105.796 21.96C105.796 22.1733 105.73 22.3467 105.596 22.48C105.463 22.6 105.27 22.66 105.016 22.66H102.596V27.42C102.596 28.1533 102.75 28.7067 103.056 29.08C103.363 29.4533 103.87 29.64 104.576 29.64C104.83 29.64 105.043 29.62 105.216 29.58C105.39 29.5267 105.543 29.5 105.676 29.5C105.796 29.4867 105.896 29.5267 105.976 29.62C106.07 29.7133 106.116 29.8867 106.116 30.14C106.116 30.3267 106.083 30.5 106.016 30.66C105.963 30.8067 105.85 30.9067 105.676 30.96C105.516 31.0133 105.303 31.06 105.036 31.1C104.77 31.1533 104.53 31.18 104.316 31.18ZM108.384 31.14C108.078 31.14 107.844 31.06 107.684 30.9C107.524 30.74 107.444 30.5067 107.444 30.2V22.04C107.444 21.7333 107.524 21.5067 107.684 21.36C107.844 21.2 108.064 21.12 108.344 21.12C108.624 21.12 108.838 21.2 108.984 21.36C109.144 21.5067 109.224 21.7333 109.224 22.04V23.58H109.024C109.238 22.78 109.638 22.1733 110.224 21.76C110.811 21.3467 111.551 21.1133 112.444 21.06C112.658 21.0467 112.831 21.1 112.964 21.22C113.098 21.3267 113.171 21.5133 113.184 21.78C113.198 22.0333 113.138 22.24 113.004 22.4C112.871 22.5467 112.664 22.6333 112.384 22.66L112.024 22.68C111.144 22.7733 110.464 23.06 109.984 23.54C109.518 24.02 109.284 24.68 109.284 25.52V30.2C109.284 30.5067 109.204 30.74 109.044 30.9C108.898 31.06 108.678 31.14 108.384 31.14ZM119.112 31.18C118.059 31.18 117.152 30.98 116.392 30.58C115.646 30.1667 115.066 29.5867 114.652 28.84C114.239 28.08 114.032 27.1867 114.032 26.16C114.032 25.1467 114.232 24.26 114.632 23.5C115.046 22.74 115.606 22.1467 116.312 21.72C117.032 21.2933 117.852 21.08 118.772 21.08C119.426 21.08 120.012 21.1933 120.532 21.42C121.066 21.6333 121.519 21.9467 121.892 22.36C122.266 22.7733 122.546 23.28 122.732 23.88C122.932 24.4667 123.032 25.1333 123.032 25.88C123.032 26.0933 122.966 26.26 122.832 26.38C122.712 26.4867 122.532 26.54 122.292 26.54H115.452V25.38H121.832L121.492 25.66C121.492 24.9667 121.386 24.38 121.172 23.9C120.972 23.4067 120.672 23.0333 120.272 22.78C119.886 22.5267 119.399 22.4 118.812 22.4C118.172 22.4 117.626 22.5533 117.172 22.86C116.719 23.1533 116.372 23.5733 116.132 24.12C115.892 24.6533 115.772 25.2733 115.772 25.98V26.1C115.772 27.3 116.059 28.2067 116.632 28.82C117.206 29.4333 118.032 29.74 119.112 29.74C119.539 29.74 119.972 29.6867 120.412 29.58C120.866 29.4733 121.299 29.28 121.712 29C121.912 28.88 122.092 28.8267 122.252 28.84C122.426 28.84 122.566 28.8933 122.672 29C122.779 29.0933 122.846 29.2133 122.872 29.36C122.899 29.4933 122.879 29.64 122.812 29.8C122.746 29.96 122.619 30.1 122.432 30.22C121.992 30.5267 121.466 30.7667 120.852 30.94C120.252 31.1 119.672 31.18 119.112 31.18ZM128.859 31.14C128.606 31.14 128.386 31.0733 128.199 30.94C128.013 30.8067 127.853 30.5933 127.719 30.3L124.319 22.38C124.226 22.1533 124.193 21.9467 124.219 21.76C124.246 21.5733 124.333 21.42 124.479 21.3C124.639 21.18 124.853 21.12 125.119 21.12C125.346 21.12 125.526 21.1733 125.659 21.28C125.793 21.3867 125.919 21.5733 126.039 21.84L129.179 29.58H128.619L131.839 21.84C131.946 21.5733 132.066 21.3867 132.199 21.28C132.346 21.1733 132.546 21.12 132.799 21.12C133.026 21.12 133.199 21.18 133.319 21.3C133.453 21.42 133.533 21.5733 133.559 21.76C133.586 21.9467 133.546 22.1467 133.439 22.36L130.019 30.3C129.899 30.5933 129.739 30.8067 129.539 30.94C129.353 31.0733 129.126 31.14 128.859 31.14ZM136.411 31.1C136.131 31.1 135.911 31.0133 135.751 30.84C135.591 30.6667 135.511 30.4267 135.511 30.12V22.14C135.511 21.82 135.591 21.58 135.751 21.42C135.911 21.2467 136.131 21.16 136.411 21.16C136.704 21.16 136.931 21.2467 137.091 21.42C137.251 21.58 137.331 21.82 137.331 22.14V30.12C137.331 30.4267 137.251 30.6667 137.091 30.84C136.944 31.0133 136.717 31.1 136.411 31.1ZM136.411 19C136.051 19 135.764 18.9067 135.551 18.72C135.351 18.52 135.251 18.26 135.251 17.94C135.251 17.5933 135.351 17.3333 135.551 17.16C135.764 16.9733 136.051 16.88 136.411 16.88C136.797 16.88 137.084 16.9733 137.271 17.16C137.471 17.3333 137.571 17.5933 137.571 17.94C137.571 18.26 137.471 18.52 137.271 18.72C137.084 18.9067 136.797 19 136.411 19ZM143.617 31.18C143.017 31.18 142.41 31.1133 141.797 30.98C141.197 30.8333 140.63 30.5867 140.097 30.24C139.95 30.1467 139.844 30.0333 139.777 29.9C139.724 29.7533 139.704 29.6133 139.717 29.48C139.744 29.3333 139.804 29.2067 139.897 29.1C139.99 28.9933 140.104 28.9333 140.237 28.92C140.384 28.8933 140.537 28.9267 140.697 29.02C141.217 29.3133 141.717 29.52 142.197 29.64C142.69 29.76 143.177 29.82 143.657 29.82C144.39 29.82 144.944 29.6867 145.317 29.42C145.69 29.1533 145.877 28.8 145.877 28.36C145.877 27.9867 145.75 27.7 145.497 27.5C145.257 27.2867 144.877 27.1267 144.357 27.02L142.497 26.64C141.67 26.4533 141.044 26.1467 140.617 25.72C140.204 25.28 139.997 24.72 139.997 24.04C139.997 23.44 140.157 22.92 140.477 22.48C140.81 22.0267 141.27 21.68 141.857 21.44C142.444 21.2 143.117 21.08 143.877 21.08C144.464 21.08 145.017 21.16 145.537 21.32C146.07 21.4667 146.55 21.6933 146.977 22C147.137 22.0933 147.237 22.2133 147.277 22.36C147.33 22.4933 147.337 22.6333 147.297 22.78C147.27 22.9133 147.21 23.0267 147.117 23.12C147.024 23.2133 146.904 23.2733 146.757 23.3C146.61 23.3133 146.45 23.2733 146.277 23.18C145.89 22.9133 145.49 22.7267 145.077 22.62C144.677 22.5 144.277 22.44 143.877 22.44C143.157 22.44 142.61 22.58 142.237 22.86C141.877 23.14 141.697 23.5067 141.697 23.96C141.697 24.3067 141.804 24.5933 142.017 24.82C142.244 25.0467 142.597 25.2133 143.077 25.32L144.937 25.7C145.804 25.8867 146.457 26.1867 146.897 26.6C147.337 27 147.557 27.5467 147.557 28.24C147.557 29.1467 147.197 29.8667 146.477 30.4C145.77 30.92 144.817 31.18 143.617 31.18ZM153.867 31.18C153.081 31.18 152.421 31.04 151.887 30.76C151.367 30.48 150.974 30.0733 150.707 29.54C150.454 29.0067 150.327 28.3533 150.327 27.58V22.66H149.047C148.807 22.66 148.621 22.6 148.487 22.48C148.354 22.3467 148.287 22.1733 148.287 21.96C148.287 21.7333 148.354 21.56 148.487 21.44C148.621 21.32 148.807 21.26 149.047 21.26H150.327V19.08C150.327 18.7733 150.407 18.5467 150.567 18.4C150.727 18.24 150.954 18.16 151.247 18.16C151.541 18.16 151.761 18.24 151.907 18.4C152.067 18.5467 152.147 18.7733 152.147 19.08V21.26H154.567C154.821 21.26 155.014 21.32 155.147 21.44C155.281 21.56 155.347 21.7333 155.347 21.96C155.347 22.1733 155.281 22.3467 155.147 22.48C155.014 22.6 154.821 22.66 154.567 22.66H152.147V27.42C152.147 28.1533 152.301 28.7067 152.607 29.08C152.914 29.4533 153.421 29.64 154.127 29.64C154.381 29.64 154.594 29.62 154.767 29.58C154.941 29.5267 155.094 29.5 155.227 29.5C155.347 29.4867 155.447 29.5267 155.527 29.62C155.621 29.7133 155.667 29.8867 155.667 30.14C155.667 30.3267 155.634 30.5 155.567 30.66C155.514 30.8067 155.401 30.9067 155.227 30.96C155.067 31.0133 154.854 31.06 154.587 31.1C154.321 31.1533 154.081 31.18 153.867 31.18ZM160.095 31.18C159.428 31.18 158.822 31.0467 158.275 30.78C157.742 30.5133 157.322 30.1533 157.015 29.7C156.722 29.2467 156.575 28.74 156.575 28.18C156.575 27.46 156.755 26.8933 157.115 26.48C157.475 26.0667 158.082 25.7733 158.935 25.6C159.788 25.4133 160.935 25.32 162.375 25.32H163.315V26.48H162.415C161.388 26.48 160.575 26.5267 159.975 26.62C159.388 26.7133 158.975 26.88 158.735 27.12C158.495 27.3467 158.375 27.6667 158.375 28.08C158.375 28.6 158.555 29.0267 158.915 29.36C159.288 29.6933 159.795 29.86 160.435 29.86C160.942 29.86 161.388 29.74 161.775 29.5C162.162 29.2467 162.468 28.9133 162.695 28.5C162.922 28.0733 163.035 27.5867 163.035 27.04V24.74C163.035 23.9533 162.875 23.3867 162.555 23.04C162.235 22.68 161.695 22.5 160.935 22.5C160.495 22.5 160.042 22.56 159.575 22.68C159.108 22.8 158.622 22.9867 158.115 23.24C157.915 23.3333 157.742 23.3667 157.595 23.34C157.448 23.3 157.328 23.22 157.235 23.1C157.155 22.9667 157.108 22.8267 157.095 22.68C157.095 22.52 157.128 22.3667 157.195 22.22C157.275 22.0733 157.408 21.9667 157.595 21.9C158.182 21.6067 158.762 21.4 159.335 21.28C159.922 21.1467 160.468 21.08 160.975 21.08C161.842 21.08 162.555 21.22 163.115 21.5C163.675 21.7667 164.095 22.1867 164.375 22.76C164.655 23.32 164.795 24.04 164.795 24.92V30.2C164.795 30.5067 164.722 30.74 164.575 30.9C164.428 31.06 164.215 31.14 163.935 31.14C163.668 31.14 163.455 31.06 163.295 30.9C163.148 30.74 163.075 30.5067 163.075 30.2V28.78H163.255C163.148 29.2733 162.948 29.7 162.655 30.06C162.362 30.42 161.995 30.7 161.555 30.9C161.128 31.0867 160.642 31.18 160.095 31.18Z" fill="white"/>
</g>
<rect x="0.5" y="0.5" width="183" height="47" rx="4.3" stroke="#122454"/>
<defs>
<clipPath id="clip0_13_8977">
<rect width="150" height="30" fill="white" transform="translate(17 9)"/>
</clipPath>
</defs>
</svg>
