<svg width="430" height="261" viewBox="0 0 430 261" fill="none" xmlns="http://www.w3.org/2000/svg">
<path opacity="0.25" d="M149.882 0.500115L149.883 0.500114L150.007 0.5C150.007 0.5 150.007 0.5 150.007 0.5C185.546 0.500125 214.415 29.1467 214.76 64.61V65.25C214.76 101.516 244.126 130.926 280.376 131H280.378C316.628 130.926 345.994 101.516 345.994 65.25V64.61C346.338 29.1466 375.208 0.5 410.747 0.5C446.508 0.5 475.5 29.4911 475.5 65.25C475.5 101.009 446.879 129.654 411.415 130H410.747C375.877 130 347.349 157.141 345.132 191.453L345.13 191.485L345.132 191.517C345.221 192.916 345.266 194.327 345.266 195.75C345.266 231.509 316.273 260.5 280.513 260.5L280.378 260.5H280.376L280.241 260.5C244.48 260.5 215.487 231.509 215.487 195.75C215.487 194.327 215.533 192.915 215.621 191.517L215.624 191.485L215.621 191.453C213.405 157.141 184.876 130 150.007 130H149.759C113.521 130 84.1312 159.314 84.0063 195.525V195.527V195.75C84.0063 231.509 55.0138 260.5 19.2531 260.5C-16.5075 260.5 -45.5 231.509 -45.5 195.75C-45.5 159.991 -17.0031 131.494 18.3391 131H19.2531C55.566 131 85.0063 101.561 85.0063 65.25V64.6069C85.3525 29.1449 114.221 0.5 149.759 0.5L149.882 0.500115ZM174.432 195.703C174.432 209.191 163.421 220.202 149.932 220.202C136.443 220.202 125.432 209.191 125.432 195.703C125.432 182.215 136.443 171.204 149.932 171.204C163.421 171.204 174.432 182.215 174.432 195.703ZM304.22 63.8139C304.22 77.302 293.209 88.3128 279.72 88.3128C266.231 88.3128 255.22 77.302 255.22 63.8139C255.22 50.3259 266.231 39.3151 279.72 39.3151C293.209 39.3151 304.22 50.3259 304.22 63.8139Z" stroke="#18D8B7"/>
</svg>
