<svg width="173" height="28" viewBox="0 0 173 28" fill="none" xmlns="http://www.w3.org/2000/svg">
<path d="M67.7697 8.44633C67.0503 8.44633 66.4255 8.19074 65.8954 7.67957C65.3653 7.14947 65.1003 6.51524 65.1003 5.77688C65.1003 5.03852 65.3653 4.41375 65.8954 3.90258C66.4255 3.37247 67.0503 3.10742 67.7697 3.10742C68.527 3.10742 69.1613 3.37247 69.6724 3.90258C70.2025 4.41375 70.4676 5.03852 70.4676 5.77688C70.4676 6.51524 70.2025 7.14947 69.6724 7.67957C69.1613 8.19074 68.527 8.44633 67.7697 8.44633ZM65.6399 24.5766V10.3774H69.928V24.5766H65.6399Z" fill="#122454"/>
<path d="M73.4605 24.5766V10.3774H77.7487V11.8257C78.5628 10.6519 79.8786 10.065 81.6961 10.065C83.4189 10.065 84.7631 10.6425 85.7286 11.7973C86.7131 12.9522 87.2054 14.4763 87.2054 16.3695V24.5766H82.9172V17.1079C82.9172 15.0064 82.1504 13.9556 80.6169 13.9556C79.765 13.9556 79.0739 14.268 78.5438 14.8928C78.0137 15.5175 77.7487 16.4452 77.7487 17.6758V24.5766H73.4605Z" fill="#122454"/>
<path d="M94.5304 24.5766L88.3111 10.3774H93.0537L96.4899 19.0106L99.9545 10.3774H104.725L98.5062 24.5766H94.5304Z" fill="#122454"/>
<path d="M112.637 24.889C110.441 24.889 108.633 24.1885 107.213 22.7875C105.812 21.3866 105.111 19.6069 105.111 17.4486C105.111 15.3282 105.821 13.5675 107.241 12.1665C108.68 10.7655 110.479 10.065 112.637 10.065C113.678 10.065 114.653 10.2449 115.562 10.6046C116.49 10.9643 117.304 11.485 118.004 12.1665C118.724 12.8481 119.282 13.7284 119.68 14.8076C120.077 15.8867 120.257 17.1079 120.219 18.471H109.286C109.362 19.2472 109.703 19.9004 110.308 20.4305C110.914 20.9416 111.766 21.1972 112.864 21.1972C113.489 21.1972 114.057 21.0742 114.568 20.8281C115.079 20.563 115.42 20.2412 115.591 19.8625H120.077C119.623 21.3582 118.714 22.5698 117.351 23.4975C115.988 24.4252 114.417 24.889 112.637 24.889ZM112.523 13.4729C111.709 13.4729 111.028 13.6811 110.479 14.0976C109.949 14.5141 109.589 15.0632 109.4 15.7447H115.477C115.269 14.9685 114.881 14.4005 114.313 14.0408C113.764 13.6622 113.167 13.4729 112.523 13.4729Z" fill="#122454"/>
<path d="M122.88 24.5766V10.3774H127.169V11.8257C127.983 10.6519 129.299 10.065 131.116 10.065C132.839 10.065 134.183 10.6425 135.149 11.7973C136.133 12.9522 136.625 14.4763 136.625 16.3695V24.5766H132.337V17.1079C132.337 15.0064 131.57 13.9556 130.037 13.9556C129.185 13.9556 128.494 14.268 127.964 14.8928C127.434 15.5175 127.169 16.4452 127.169 17.6758V24.5766H122.88Z" fill="#122454"/>
<path d="M142.094 8.44633C141.374 8.44633 140.75 8.19074 140.219 7.67957C139.689 7.14947 139.424 6.51524 139.424 5.77688C139.424 5.03852 139.689 4.41375 140.219 3.90258C140.75 3.37247 141.374 3.10742 142.094 3.10742C142.851 3.10742 143.485 3.37247 143.996 3.90258C144.527 4.41375 144.792 5.03852 144.792 5.77688C144.792 6.51524 144.527 7.14947 143.996 7.67957C143.485 8.19074 142.851 8.44633 142.094 8.44633ZM139.964 24.5766V10.3774H144.252V24.5766H139.964Z" fill="#122454"/>
<path d="M147.785 24.5766V10.3774H152.073V12.5073C152.3 11.8636 152.726 11.324 153.351 10.8886C153.975 10.4342 154.676 10.207 155.452 10.207C155.944 10.207 156.408 10.2638 156.844 10.3774V14.7224C156.181 14.4952 155.547 14.3816 154.941 14.3816C154.032 14.3816 153.322 14.7035 152.811 15.3472C152.319 15.9719 152.073 16.8049 152.073 17.8462V24.5766H147.785Z" fill="#122454"/>
<path d="M165.413 24.889C163.217 24.889 161.409 24.1885 159.989 22.7875C158.588 21.3866 157.887 19.6069 157.887 17.4486C157.887 15.3282 158.597 13.5675 160.017 12.1665C161.456 10.7655 163.254 10.065 165.413 10.065C166.454 10.065 167.429 10.2449 168.338 10.6046C169.265 10.9643 170.079 11.485 170.78 12.1665C171.499 12.8481 172.058 13.7284 172.456 14.8076C172.853 15.8867 173.033 17.1079 172.995 18.471H162.062C162.137 19.2472 162.478 19.9004 163.084 20.4305C163.69 20.9416 164.542 21.1972 165.64 21.1972C166.265 21.1972 166.833 21.0742 167.344 20.8281C167.855 20.563 168.196 20.2412 168.366 19.8625H172.853C172.399 21.3582 171.49 22.5698 170.127 23.4975C168.764 24.4252 167.192 24.889 165.413 24.889ZM165.299 13.4729C164.485 13.4729 163.803 13.6811 163.254 14.0976C162.724 14.5141 162.365 15.0632 162.175 15.7447H168.253C168.044 14.9685 167.656 14.4005 167.088 14.0408C166.539 13.6622 165.943 13.4729 165.299 13.4729Z" fill="#122454"/>
<path fillRule="evenodd" clipRule="evenodd" d="M20.4077 0.648926C24.1645 0.648926 27.2103 3.6947 27.2103 7.4515C27.2103 11.2083 24.2033 14.2179 20.4775 14.2541C20.4543 14.2541 20.431 14.2541 20.4077 14.2541C16.6587 14.2541 13.6181 17.2869 13.6052 21.0334V21.0567C13.6052 24.8135 10.5594 27.8592 6.80258 27.8592C3.04578 27.8592 0 24.8135 0 21.0567C0 17.2999 2.99406 14.3058 6.70691 14.2541C6.73794 14.2541 6.77155 14.2541 6.80258 14.2541C10.5594 14.2541 13.6052 11.2083 13.6052 7.4515V7.38428C13.6414 3.6585 16.6742 0.648926 20.4077 0.648926ZM13.6052 7.38428C13.6052 7.40755 13.6052 7.43082 13.6052 7.4515V7.38428Z" fill="#18D8B7"/>
<path fillRule="evenodd" clipRule="evenodd" d="M20.4335 0.648926C16.6767 0.648926 13.6309 3.6947 13.6309 7.4515C13.6309 11.2083 16.6379 14.2179 20.3637 14.2541C20.387 14.2541 20.4102 14.2541 20.4335 14.2541C24.1825 14.2541 27.2231 17.2869 27.2361 21.0334C27.2361 21.0411 27.2361 21.0489 27.2361 21.0567C27.2361 24.8135 30.2819 27.8592 34.0387 27.8592C37.7955 27.8592 40.8412 24.8135 40.8412 21.0567C40.8412 17.2999 37.8472 14.3058 34.1343 14.2541C34.1033 14.2541 34.0697 14.2541 34.0387 14.2541C30.2819 14.2541 27.2361 11.2083 27.2361 7.4515V7.38428C27.1999 3.6585 24.167 0.648926 20.4335 0.648926ZM27.2361 7.38428C27.2361 7.40755 27.2361 7.43082 27.2361 7.4515V7.38428Z" fill="#18D8B7"/>
<path fillRule="evenodd" clipRule="evenodd" d="M20.4257 23.658C21.8607 23.658 23.032 22.4868 23.032 21.0518C23.032 19.6168 21.8607 18.4456 20.4257 18.4456C18.9907 18.4456 17.8195 19.6168 17.8195 21.0518C17.8195 22.4868 18.9907 23.658 20.4257 23.658Z" fill="#122454"/>
<path fillRule="evenodd" clipRule="evenodd" d="M47.6154 0.648926C51.3722 0.648926 54.418 3.6947 54.418 7.4515C54.418 11.2083 51.411 14.2179 47.6852 14.2541C47.662 14.2541 47.6387 14.2541 47.6154 14.2541C43.8664 14.2541 40.8258 17.2869 40.8129 21.0334C40.8129 21.0411 40.8129 21.0489 40.8129 21.0567C40.8129 24.8135 37.7671 27.8592 34.0103 27.8592C30.2535 27.8592 27.2077 24.8135 27.2077 21.0567C27.2077 17.2999 30.2018 14.3058 33.9146 14.2541C33.9456 14.2541 33.9793 14.2541 34.0103 14.2541C37.7671 14.2541 40.8129 11.2083 40.8129 7.4515V7.38428C40.8491 3.6585 43.8819 0.648926 47.6154 0.648926ZM40.8129 7.38428C40.8129 7.40755 40.8129 7.43082 40.8129 7.4515V7.38428Z" fill="#18D8B7"/>
<path fillRule="evenodd" clipRule="evenodd" d="M33.956 9.90802C35.391 9.90802 36.5622 8.73677 36.5622 7.30179C36.5622 5.86681 35.391 4.69556 33.956 4.69556C32.521 4.69556 31.3498 5.86681 31.3498 7.30179C31.3498 8.73677 32.521 9.90802 33.956 9.90802Z" fill="#122454"/>
</svg>
